<svg xmlns="http://www.w3.org/2000/svg" viewBox="0 0 741 390">
  <rect width="741" height="390" fill="#b22234"/>
  <rect y="30" width="741" height="30" fill="#fff"/>
  <rect y="90" width="741" height="30" fill="#fff"/>
  <rect y="150" width="741" height="30" fill="#fff"/>
  <rect y="210" width="741" height="30" fill="#fff"/>
  <rect y="270" width="741" height="30" fill="#fff"/>
  <rect y="330" width="741" height="30" fill="#fff"/>
  <rect width="296" height="210" fill="#3c3b6e"/>
  <g fill="#fff">
    <circle cx="30" cy="25" r="6"/><circle cx="60" cy="25" r="6"/><circle cx="90" cy="25" r="6"/><circle cx="120" cy="25" r="6"/><circle cx="150" cy="25" r="6"/>
    <circle cx="45" cy="48" r="6"/><circle cx="75" cy="48" r="6"/><circle cx="105" cy="48" r="6"/><circle cx="135" cy="48" r="6"/>
    <circle cx="30" cy="71" r="6"/><circle cx="60" cy="71" r="6"/><circle cx="90" cy="71" r="6"/><circle cx="120" cy="71" r="6"/><circle cx="150" cy="71" r="6"/>
    <circle cx="45" cy="94" r="6"/><circle cx="75" cy="94" r="6"/><circle cx="105" cy="94" r="6"/><circle cx="135" cy="94" r="6"/>
    <circle cx="30" cy="117" r="6"/><circle cx="60" cy="117" r="6"/><circle cx="90" cy="117" r="6"/><circle cx="120" cy="117" r="6"/><circle cx="150" cy="117" r="6"/>
    <circle cx="45" cy="140" r="6"/><circle cx="75" cy="140" r="6"/><circle cx="105" cy="140" r="6"/><circle cx="135" cy="140" r="6"/>
    <circle cx="30" cy="163" r="6"/><circle cx="60" cy="163" r="6"/><circle cx="90" cy="163" r="6"/><circle cx="120" cy="163" r="6"/><circle cx="150" cy="163" r="6"/>
    <circle cx="45" cy="186" r="6"/><circle cx="75" cy="186" r="6"/><circle cx="105" cy="186" r="6"/><circle cx="135" cy="186" r="6"/>
  </g>
</svg>
